<svg xmlns="http://www.w3.org/2000/svg" width="3833.872" height="4000.756" viewBox="0 0 3833.872 4000.756">
  <g id="buzz" transform="translate(178.92 179.88)">
    <path id="bjfzzoRUU" d="M1597.72,2442q-133.29,236.73-195,278.47t-326.25,57.75q-105.4-53.79-85.48-95.53c19.89-41.78,37.78-31.8,107.37-75.58q69.69-43.77,266.57-280.47Z" transform="translate(-252.92 -179.88)" fill="#edd37c"/>
    <path id="bjfzzoRUU-2" data-name="bjfzzoRUU" d="M1597.72,2442q-133.29,236.73-195,278.47t-326.25,57.75q-105.4-53.79-85.48-95.53c19.89-41.78,37.78-31.8,107.37-75.58q69.69-43.77,266.57-280.47Z" transform="translate(-252.92 -179.88)" fill="rgba(0,0,0,0)" stroke="rgba(0,0,0,0)" stroke-miterlimit="25.6" stroke-width="6.4"/>
    <path id="a4Cd8BHQWp" d="M2623.74,3465.91c-2.27,152.39-534.66,521.93-616.63,531.22S2100,3865.46,2166.45,3780q66.38-85.39,180.19-364.93Q2626,3313.46,2623.74,3465.91Z" transform="translate(-252.92 -179.88)" fill="#edd37c"/>
    <path id="a4Cd8BHQWp-2" data-name="a4Cd8BHQWp" d="M2623.74,3465.91c-2.27,152.39-534.66,521.93-616.63,531.22S2100,3865.46,2166.45,3780q66.38-85.39,180.19-364.93Q2626,3313.46,2623.74,3465.91Z" transform="translate(-252.92 -179.88)" fill="rgba(0,0,0,0)" stroke="#edd37c" stroke-miterlimit="25.6" stroke-width="6.4"/>
    <path id="aKSHlqqtr" d="M3047.41,3342.17c30,101.66-219.42,270.29-286.39,309.52s-305.18,71.58-473.81-48.52-163.68-242.48-142.41-339.53q21.38-96.94,128.85-106.2Q3017.41,3240.54,3047.41,3342.17Z" transform="translate(-252.92 -179.88)"/>
    <path id="aKSHlqqtr-2" data-name="aKSHlqqtr" d="M3047.41,3342.17c30,101.66-219.42,270.29-286.39,309.52s-305.18,71.58-473.81-48.52-163.68-242.48-142.41-339.53q21.38-96.94,128.85-106.2Q3017.41,3240.54,3047.41,3342.17Z" transform="translate(-252.92 -179.88)" fill="rgba(0,0,0,0)" stroke="#000" stroke-miterlimit="25.6" stroke-width="6.4"/>
    <path id="h65G08TKg" d="M3086.07,2767.4c46.12,7.08,108.2,52.86,152.59,189.41s-74.68,422.19-314,474-416.48,17.28-569.42-72.75S2137,3077.81,2165,2978.49q28-99.31,106.82-49.21Q3040,2760.28,3086.07,2767.4Z" transform="translate(-252.92 -179.88)" fill="#edd37c"/>
    <path id="h65G08TKg-2" data-name="h65G08TKg" d="M3086.07,2767.4c46.12,7.08,108.2,52.86,152.59,189.41s-74.68,422.19-314,474-416.48,17.28-569.42-72.75S2137,3077.81,2165,2978.49q28-99.31,106.82-49.21Q3040,2760.28,3086.07,2767.4Z" transform="translate(-252.92 -179.88)" fill="rgba(0,0,0,0)" stroke="#edd37c" stroke-miterlimit="25.6" stroke-width="6.4"/>
    <path id="i12oEWxJaP" d="M3001.74,2254.74c90.24,38.68,180.54,167.6,220.81,261.14s59.67,253-46.74,415.86-472.3,332-702.8,228.85-270.77-238.56-251.43-344.9q19.3-106.44,91-107.58Q2911.48,2216.06,3001.74,2254.74Z" transform="translate(-252.92 -179.88)"/>
    <path id="i12oEWxJaP-2" data-name="i12oEWxJaP" d="M3001.74,2254.74c90.24,38.68,180.54,167.6,220.81,261.14s59.67,253-46.74,415.86-472.3,332-702.8,228.85-270.77-238.56-251.43-344.9q19.3-106.44,91-107.58Q2911.48,2216.06,3001.74,2254.74Z" transform="translate(-252.92 -179.88)" fill="rgba(0,0,0,0)" stroke="#000" stroke-miterlimit="25.6" stroke-width="6.4"/>
    <path id="fhtQ6Nf8T" d="M2845.37,2126.1q98.28-21,182.12,104.76c83.83,125.75,33.86,296.58,4.88,380.41S2861.47,2812.73,2751.9,2845s-354.6,9.64-427.15-87.06q-72.59-96.75-11.29-177.31Z" transform="translate(-252.92 -179.88)" fill="#edd37c"/>
    <path id="fhtQ6Nf8T-2" data-name="fhtQ6Nf8T" d="M2845.37,2126.1q98.28-21,182.12,104.76c83.83,125.75,33.86,296.58,4.88,380.41S2861.47,2812.73,2751.9,2845s-354.6,9.64-427.15-87.06q-72.59-96.75-11.29-177.31Z" transform="translate(-252.92 -179.88)" fill="rgba(0,0,0,0)" stroke="#edd37c" stroke-miterlimit="25.6" stroke-width="6.4"/>
    <path id="fNrk0GQvb" d="M2661.6,1897,3419,1765.65,2661.6,1897,3419,1765.65,2661.6,1897,3419,1765.65q352.07-227,339.46-305.53-12.58-78.67-304.84-18.86,81.68-41.8,175.93-139.17c94.29-97.46,169.73-200.29,201.18-250.6S4019.3,818.92,3749,812.65q-270.28-6.28-866.2,433.14,296.61-674,63.32-630.67t-440.57,622Z" transform="translate(-252.92 -179.88)" fill="#fff"/>
    <path id="fNrk0GQvb-2" data-name="fNrk0GQvb" d="M2661.6,1897,3419,1765.65,2661.6,1897,3419,1765.65,2661.6,1897,3419,1765.65q352.07-227,339.46-305.53-12.58-78.67-304.84-18.86,81.68-41.8,175.93-139.17c94.29-97.46,169.73-200.29,201.18-250.6S4019.3,818.92,3749,812.65q-270.28-6.28-866.2,433.14,296.61-674,63.32-630.67t-440.57,622Z" transform="translate(-252.92 -179.88)" fill="#939393" stroke="rgba(255,255,255,0.93)" stroke-miterlimit="25.6" stroke-width="6.4"/>
    <path id="aLIZqU1g7" d="M1445.33,2247q945.92-537.38,1194.24-553.1c248.26-15.76,248.26,326.87,282.88,389.71S2815.56,2555,2727.6,2605.35s-367.75,91.13-451.1,22-460.32-84.8-582.9-103.66q-122.55-18.89-367.75-176.06Z" transform="translate(-252.92 -179.88)"/>
    <path id="aLIZqU1g7-2" data-name="aLIZqU1g7" d="M1445.33,2247q945.92-537.38,1194.24-553.1c248.26-15.76,248.26,326.87,282.88,389.71S2815.56,2555,2727.6,2605.35s-367.75,91.13-451.1,22-460.32-84.8-582.9-103.66q-122.55-18.89-367.75-176.06Z" transform="translate(-252.92 -179.88)" fill="rgba(0,0,0,0)" stroke="rgba(4,34,20,0)" stroke-miterlimit="25.6" stroke-width="6.4"/>
    <path id="a1d8fLywbo" d="M2131.76,1013.43c234.7-25.13,350.95,66.07,392,97.94S2738,1473.75,2658.22,1667.5s-291.76,309.93-396.58,387.43-827.32,380.62-950.38,382.9q-123.08,2.27-168.63-63.81-337.31,180.06-435.34,84.32C609.35,2362.6,543.2,2162,748.38,1683.47q205-478.63,828.28-681.47Q1897,1038.45,2131.76,1013.43Z" transform="translate(-252.92 -179.88)" fill="#edd37c"/>
    <path id="a1d8fLywbo-2" data-name="a1d8fLywbo" d="M2131.76,1013.43c234.7-25.13,350.95,66.07,392,97.94S2738,1473.75,2658.22,1667.5s-291.76,309.93-396.58,387.43-827.32,380.62-950.38,382.9q-123.08,2.27-168.63-63.81-337.31,180.06-435.34,84.32C609.35,2362.6,543.2,2162,748.38,1683.47q205-478.63,828.28-681.47Q1897,1038.45,2131.76,1013.43Z" transform="translate(-252.92 -179.88)" fill="rgba(0,0,0,0)" stroke="rgba(68,176,128,0)" stroke-miterlimit="25.6" stroke-width="6.4"/>
    <path id="aw9Mki2sF" d="M856.58,1490.06c22.37-27.53-53.35,58.51,125.61-130.77q178.92-189.24,428.45-261.55-20.64,10.32-68.82,79.15c-48.18,68.83-120.45,354.47-53.35,481.8s222,161.75,370,137.66,322.52-174,385.43-232.3,130.78-135.93,166.91-285.64S2128.18,944.6,1975,906.74q-153.1-37.89-380.27,46.46-86-22.4-125.61-29.25c-39.58-6.88-251.23-41.3-487,137.66Q746.41,1240.53,830.7,1514.15C833,1516.42,841.64,1508.44,856.58,1490.06Z" transform="translate(-252.92 -179.88)"/>
    <path id="aw9Mki2sF-2" data-name="aw9Mki2sF" d="M856.58,1490.06c22.37-27.53-53.35,58.51,125.61-130.77q178.92-189.24,428.45-261.55-20.64,10.32-68.82,79.15c-48.18,68.83-120.45,354.47-53.35,481.8s222,161.75,370,137.66,322.52-174,385.43-232.3,130.78-135.93,166.91-285.64S2128.18,944.6,1975,906.74q-153.1-37.89-380.27,46.46-86-22.4-125.61-29.25c-39.58-6.88-251.23-41.3-487,137.66Q746.41,1240.53,830.7,1514.15C833,1516.42,841.64,1508.44,856.58,1490.06Z" transform="translate(-252.92 -179.88)" fill="rgba(0,0,0,0)" stroke="#000" stroke-miterlimit="25.6" stroke-width="6.4"/>
    <path id="c2oTlHjl6V" d="M2851.29,1687.25c18.17-27.18,39.37-66.55,140.68-90.71q101.39-24.27,210.27,75.64l-99.8,228.65q-42.54-1.55-67.93,7.57c-25.4,9.15-41.51,76-67.94,113.63s-86.24,33.52-126.85,28.43-73.09,52.79-81.21,82.25-32.49,38.54-74.13,39.58-132-54.86-160-145.16,29-149.22,90.92-228.44q61.95-79.18,194.92-68Q2833.18,1714.48,2851.29,1687.25Z" transform="translate(-252.92 -179.88)" fill="#edd37c"/>
    <path id="c2oTlHjl6V-2" data-name="c2oTlHjl6V" d="M2851.29,1687.25c18.17-27.18,39.37-66.55,140.68-90.71q101.39-24.27,210.27,75.64l-99.8,228.65q-42.54-1.55-67.93,7.57c-25.4,9.15-41.51,76-67.94,113.63s-86.24,33.52-126.85,28.43-73.09,52.79-81.21,82.25-32.49,38.54-74.13,39.58-132-54.86-160-145.16,29-149.22,90.92-228.44q61.95-79.18,194.92-68Q2833.18,1714.48,2851.29,1687.25Z" transform="translate(-252.92 -179.88)" fill="rgba(0,0,0,0)" stroke="rgba(51,127,94,0)" stroke-miterlimit="25.6" stroke-width="6.4"/>
    <path id="b1pURqnQUa" d="M74,0" transform="translate(-252.92 -179.88)" fill="rgba(0,0,0,0)" stroke="rgba(51,127,94,0)" stroke-miterlimit="25.6" stroke-width="6.4"/>
    <path id="dmAH0yuqp" d="M3223.37,1661.58c61.67-3.1,180.33,85.83,232.5,132.63s-79.08,187.22-145.5,209.1-158.17-32.76-204-65.52q-45.93-32.83,9.43-171.66Q3161.74,1664.64,3223.37,1661.58Z" transform="translate(-252.92 -179.88)" fill="#fff"/>
    <path id="dmAH0yuqp-2" data-name="dmAH0yuqp" d="M3223.37,1661.58c61.67-3.1,180.33,85.83,232.5,132.63s-79.08,187.22-145.5,209.1-158.17-32.76-204-65.52q-45.93-32.83,9.43-171.66Q3161.74,1664.64,3223.37,1661.58Z" transform="translate(-252.92 -179.88)" stroke="rgba(255,255,255,0.93)" stroke-miterlimit="25.6" stroke-width="6.4"/>
    <path id="a2UwEWLzi6" d="M3592.15,1885.75c36.28,23.82,87.07,89.14,91.2,143q4.13,53.9-53.89,73.65,13.51,3.09,15.55,30t-63.25,84q14.55,29,19.68,56c5.24,27-29,67.39-104.68,48.73q-75.68-18.59-108.82-112.94-70.52-8.37-125.4-44.6c-54.93-36.28-51.83-71.52-33.18-99.53q18.69-28,99.53-88.1,13.41-22.82,35.24-65.32t107.78-81.83Q3555.85,1861.9,3592.15,1885.75Z" transform="translate(-252.92 -179.88)" fill="#edd37c"/>
    <path id="a2UwEWLzi6-2" data-name="a2UwEWLzi6" d="M3592.15,1885.75c36.28,23.82,87.07,89.14,91.2,143q4.13,53.9-53.89,73.65,13.51,3.09,15.55,30t-63.25,84q14.55,29,19.68,56c5.24,27-29,67.39-104.68,48.73q-75.68-18.59-108.82-112.94-70.52-8.37-125.4-44.6c-54.93-36.28-51.83-71.52-33.18-99.53q18.69-28,99.53-88.1,13.41-22.82,35.24-65.32t107.78-81.83Q3555.85,1861.9,3592.15,1885.75Z" transform="translate(-252.92 -179.88)" fill="rgba(0,0,0,0)" stroke="#edd37c" stroke-miterlimit="25.6" stroke-width="6.4"/>
    <path id="aufrnt2Uw" d="M1241.33,2786.51q-46.15,207.51-112,206.69c-65.87-.76-182.74-96.36-199.25-158.92s-6.54-148.19,97.18-196Q1131,2590.51,1168.85,2668l39.51,14.8Z" transform="translate(-252.92 -179.88)" fill="#fff"/>
    <path id="aufrnt2Uw-2" data-name="aufrnt2Uw" d="M1241.33,2786.51q-46.15,207.51-112,206.69c-65.87-.76-182.74-96.36-199.25-158.92s-6.54-148.19,97.18-196Q1131,2590.51,1168.85,2668l39.51,14.8Z" transform="translate(-252.92 -179.88)" stroke="rgba(255,255,255,0.92)" stroke-miterlimit="25.6" stroke-width="6.4"/>
    <path id="b1mbGRLAZ" d="M1174.63,2741c-2-21.88-7.91-107.44,0-127.33s89.55-27.8,143.23-35.79,165.12-11.91,200.91,10q35.84,21.78,10,135.25c11.91,0,21.89,7.91,29.81,23.88,12,23.82,14,35.79-7.92,77.57q-21.89,41.71-101.45,21.89,31.8,117.39-10,139.24t-65.66-33.8q-127.3,75.58-159.14,83.49c-31.79,8-87.48,23.89-101.45-67.59q-13.93-91.58,79.57-143.23Q1176.63,2762.94,1174.63,2741Z" transform="translate(-252.92 -179.88)" fill="#edd37c"/>
    <path id="b1mbGRLAZ-2" data-name="b1mbGRLAZ" d="M1174.63,2741c-2-21.88-7.91-107.44,0-127.33s89.55-27.8,143.23-35.79,165.12-11.91,200.91,10q35.84,21.78,10,135.25c11.91,0,21.89,7.91,29.81,23.88,12,23.82,14,35.79-7.92,77.57q-21.89,41.71-101.45,21.89,31.8,117.39-10,139.24t-65.66-33.8q-127.3,75.58-159.14,83.49c-31.79,8-87.48,23.89-101.45-67.59q-13.93-91.58,79.57-143.23Q1176.63,2762.94,1174.63,2741Z" transform="translate(-252.92 -179.88)" fill="rgba(0,0,0,0)" stroke="rgba(35,85,62,0)" stroke-miterlimit="25.6" stroke-width="6.4"/>
    <path id="b1CXt96mo" d="M1403.83,874.12c-305.94-295.41-669.84-356-751.6-395.63S240.84,386.2,256.67,452.13s292.73,92.3,574.92,163.54q282.17,71.13,506.3,292.72Q1709.67,1169.39,1403.83,874.12Z" transform="translate(-252.92 -179.88)"/>
    <path id="b1CXt96mo-2" data-name="b1CXt96mo" d="M1403.83,874.12c-305.94-295.41-669.84-356-751.6-395.63S240.84,386.2,256.67,452.13s292.73,92.3,574.92,163.54q282.17,71.13,506.3,292.72Q1709.67,1169.39,1403.83,874.12Z" transform="translate(-252.92 -179.88)" fill="rgba(0,0,0,0)" stroke="#000" stroke-miterlimit="25.6" stroke-width="6.4"/>
    <path id="b15aZpmJUr" d="M1985.29,921.54C1956.31,853,1724.22,613,1645.14,533.9s-522.13-356-603.9-350.75-29,108.13,229.27,184.6q258.21,76.5,643.61,569.41Q2014.28,990.13,1985.29,921.54Z" transform="translate(-252.92 -179.88)"/>
    <path id="b15aZpmJUr-2" data-name="b15aZpmJUr" d="M1985.29,921.54C1956.31,853,1724.22,613,1645.14,533.9s-522.13-356-603.9-350.75-29,108.13,229.27,184.6q258.21,76.5,643.61,569.41Q2014.28,990.13,1985.29,921.54Z" transform="translate(-252.92 -179.88)" fill="rgba(0,0,0,0)" stroke="#000" stroke-miterlimit="25.6" stroke-width="6.4"/>
  </g>
</svg>
