<svg xmlns="http://www.w3.org/2000/svg" width="17.052" height="19.865" viewBox="0 0 17.052 19.865">
  <path id="Path_1322" data-name="Path 1322" d="M14.607,2.012a.758.758,0,0,0-.265,0H8.084A4.569,4.569,0,0,0,3.5,6.491V17.2a4.576,4.576,0,0,0,4.584,4.661h7.989A4.635,4.635,0,0,0,20.552,17.2V8.038a.75.75,0,0,0-.209-.519L15.278,2.242a.75.75,0,0,0-.541-.231Zm-.883,1.5H8.084A3.07,3.07,0,0,0,5,6.491V17.2a3.077,3.077,0,0,0,3.084,3.161h7.989A3.138,3.138,0,0,0,19.052,17.2V8.983l-.875,0-1.135,0a3.324,3.324,0,0,1-3.311-3.137l-.005-.188ZM18.23,7.484H17.044a1.824,1.824,0,0,1-1.82-1.825V4.353Zm-3.946,7.324a.75.75,0,0,1,.1,1.493l-.1.007h-5.4a.75.75,0,0,1-.1-1.493l.1-.007Zm-1.292-4.2a.75.75,0,0,0-.75-.75H8.886l-.1.007a.75.75,0,0,0,.1,1.493h3.356l.1-.007A.75.75,0,0,0,12.993,10.606Z" transform="translate(-3.5 -2)" fill="#3b3b3b" fill-rule="evenodd"/>
</svg>
