<svg xmlns="http://www.w3.org/2000/svg" width="11.63" height="13.462" viewBox="0 0 11.63 13.462">
  <g id="Group_450" data-name="Group 450" transform="translate(-3.5 -2)">
    <path id="Path_1323" data-name="Path 1323" d="M11.081,2.762H6.747a2.488,2.488,0,0,0-2.5,2.429v6.978a2.493,2.493,0,0,0,2.5,2.548h5.2a2.532,2.532,0,0,0,2.429-2.548V6.2Z" transform="translate(0 -0.004)" fill="none" stroke="#3b3b3b" stroke-linecap="round" stroke-linejoin="round" stroke-width="1.5" fill-rule="evenodd"/>
    <path id="Path_1324" data-name="Path 1324" d="M14.474,2.75V4.645a1.677,1.677,0,0,0,1.673,1.677c.858,0,1.735,0,1.795,0" transform="translate(-3.564)" fill="none" stroke="#3b3b3b" stroke-linecap="round" stroke-linejoin="round" stroke-width="1.5"/>
    <path id="Path_1325" data-name="Path 1325" d="M12.4,15.558H8.887" transform="translate(-1.617 -4.465)" fill="none" stroke="#3b3b3b" stroke-linecap="round" stroke-linejoin="round" stroke-width="1.5"/>
    <path id="Path_1326" data-name="Path 1326" d="M11.073,10.606H8.887" transform="translate(-1.617 -2.739)" fill="none" stroke="#3b3b3b" stroke-linecap="round" stroke-linejoin="round" stroke-width="1.5"/>
  </g>
</svg>
