<svg xmlns="http://www.w3.org/2000/svg" width="14.333" height="15.499" viewBox="0 0 14.333 15.499">
  <g id="Group_331" data-name="Group 331" transform="translate(-3 -2.001)">
    <path id="Path_1101" data-name="Path 1101" d="M15.873,9.468s-.411,5.1-.649,7.243a1.693,1.693,0,0,1-1.784,1.645c-1.974.036-3.951.038-5.924,0a1.675,1.675,0,0,1-1.732-1.636c-.24-2.166-.649-7.249-.649-7.249" transform="translate(-0.337 -1.634)" fill="none" stroke="#f75959" stroke-linecap="round" stroke-linejoin="round" stroke-width="1.5"/>
    <path id="Path_1102" data-name="Path 1102" d="M16.583,6.24H3.75" transform="translate(0 -0.849)" fill="none" stroke="#f75959" stroke-linecap="round" stroke-linejoin="round" stroke-width="1.5"/>
    <path id="Path_1103" data-name="Path 1103" d="M14.905,5.391a1.247,1.247,0,0,1-1.222-1l-.184-.92a.968.968,0,0,0-.936-.718H9.36a.968.968,0,0,0-.936.718l-.184.92a1.247,1.247,0,0,1-1.222,1" transform="translate(-0.795)" fill="none" stroke="#f75959" stroke-linecap="round" stroke-linejoin="round" stroke-width="1.5"/>
  </g>
</svg>
