<svg xmlns="http://www.w3.org/2000/svg" width="14.255" height="14.421" viewBox="0 0 14.255 14.421">
  <g id="Group_335" data-name="Group 335" transform="translate(0.75 0.893)">
    <path id="Path_1110" data-name="Path 1110" d="M8.67,2.789H6.138A3.285,3.285,0,0,0,2.75,6.35v5.63a3.281,3.281,0,0,0,3.388,3.561h5.975A3.282,3.282,0,0,0,15.5,11.98V9.252" transform="translate(-2.75 -2.763)" fill="none" stroke="#3e3e3e" stroke-linecap="round" stroke-linejoin="round" stroke-width="1.5"/>
    <path id="Path_1111" data-name="Path 1111" d="M8.592,8.283l5.06-5.06a1.615,1.615,0,0,1,2.283,0l.824.824a1.614,1.614,0,0,1,0,2.283l-5.085,5.085a1.47,1.47,0,0,1-1.039.431H8.1l.064-2.56A1.47,1.47,0,0,1,8.592,8.283Z" transform="translate(-4.477 -2.75)" fill="none" stroke="#3e3e3e" stroke-linecap="round" stroke-linejoin="round" stroke-width="1.5" fill-rule="evenodd"/>
    <path id="Path_1112" data-name="Path 1112" d="M15.165,4.6l3.092,3.092" transform="translate(-6.759 -3.348)" fill="none" stroke="#3e3e3e" stroke-linecap="round" stroke-linejoin="round" stroke-width="1.5"/>
  </g>
</svg>
