<svg xmlns="http://www.w3.org/2000/svg" xmlns:xlink="http://www.w3.org/1999/xlink" width="2302.703" height="2278.365" viewBox="0 0 2302.703 2278.365">
  <defs>
    <clipPath id="clip-path">
      <path id="Path_1092" data-name="Path 1092" d="M0,0H1201.2V644.108L772.383,884.77v443.719l-600.165,342.06L0,2220.772Z" transform="translate(627 502.228)" fill="#d9ae3b" stroke="#707070" stroke-width="1"/>
    </clipPath>
    <clipPath id="clip-path-2">
      <path id="Path_1093" data-name="Path 1093" d="M-461.338,629.834v-686.2L528.277,378.678,640.7,1694.282,0,1306.38V837.787Z" transform="translate(2289 501)" fill="#fff" stroke="#707070" stroke-width="1"/>
    </clipPath>
  </defs>
  <g id="Group_312" data-name="Group 312" transform="translate(-627 -444.635)">
    <path id="Polygon_10" data-name="Polygon 10" d="M403.874,0a50,50,0,0,1,43.308,25.011l115.4,200a50,50,0,0,1,0,49.977l-115.4,200A50,50,0,0,1,403.874,500H173.126a50,50,0,0,1-43.308-25.011l-115.4-200a50,50,0,0,1,0-49.977l115.4-200A50,50,0,0,1,173.126,0Z" transform="translate(2075.486 1269.378) rotate(90)" fill="#3b3b3b"/>
    <g id="Group_308" data-name="Group 308">
      <path id="Subtraction_303" data-name="Subtraction 303" d="M-5763.5-3164.735h-.043v-209.274c1.148-5.421,3.991-9.628,9.506-14.066,5.3-4.266,12.811-8.564,23.2-14.514l.013-.009c2.161-1.236,4.5-2.573,6.931-3.978L-5325-3636.818a50.065,50.065,0,0,0,18.305-18.3,50.072,50.072,0,0,0,6.7-25V-4156.88a50.071,50.071,0,0,0-6.7-25,50.069,50.069,0,0,0-18.305-18.3l-242.062-139.722v-201.609a19.948,19.948,0,0,1,2.691-6.6,14.653,14.653,0,0,1,4.465-4.535,13.838,13.838,0,0,1,7.521-2.062,25.919,25.919,0,0,1,9.678,2.175L-5129-4313.684a50.066,50.066,0,0,1,18.3,18.3,50.06,50.06,0,0,1,6.7,25v703.762a50.06,50.06,0,0,1-6.7,25,50.06,50.06,0,0,1-18.3,18.3l-609.5,351.883A50.063,50.063,0,0,1-5763.5-3164.735Zm-196.043-105.446v0L-6398-3523.317a50.058,50.058,0,0,1-18.3-18.3,50.062,50.062,0,0,1-6.7-25v-703.762a50.062,50.062,0,0,1,6.7-25,50.062,50.062,0,0,1,18.3-18.3l609.5-351.884a50.068,50.068,0,0,1,25-6.7l.432,0v197.148c-.674,9.745-2.295,16.588-5.1,21.537-3.5,6.166-8.5,8.851-14.825,12.251l-.006,0-.016.009c-1.591.854-3.235,1.737-4.978,2.743l-23.723,13.693L-6201-4200.184a50.084,50.084,0,0,0-18.3,18.3,50.052,50.052,0,0,0-6.7,25v476.758a50.055,50.055,0,0,0,6.7,25,50.061,50.061,0,0,0,18.3,18.3l241.453,139.37v227.266h0Z" transform="translate(7588.066 5476.25)" fill="#f5d850"/>
      <rect id="Rectangle_1074" data-name="Rectangle 1074" width="196" height="313" transform="translate(1825 2131)" fill="#f5d850"/>
      <rect id="Rectangle_1075" data-name="Rectangle 1075" width="196" height="330" transform="translate(1629 671)" fill="#f5d850"/>
      <path id="Subtraction_304" data-name="Subtraction 304" d="M-5501.5-2560.727a50.058,50.058,0,0,1-24.99-6.694l-871.5-502.9a50.071,50.071,0,0,1-18.308-18.3,50.066,50.066,0,0,1-6.7-25.005V-4119.375a50.068,50.068,0,0,1,6.7-25,50.062,50.062,0,0,1,18.308-18.3l871.5-502.9a50.07,50.07,0,0,1,24.99-6.693,50.07,50.07,0,0,1,24.99,6.693l871.5,502.9a50.056,50.056,0,0,1,18.309,18.3,50.07,50.07,0,0,1,6.7,25v1005.747a50.071,50.071,0,0,1-6.7,25.005,50.065,50.065,0,0,1-18.309,18.3l-871.5,502.9A50.061,50.061,0,0,1-5501.5-2560.727Zm0-1910.547a50.061,50.061,0,0,0-24.989,6.693l-696.5,401.9a50.067,50.067,0,0,0-18.309,18.3,50.057,50.057,0,0,0-6.7,25v803.748a50.064,50.064,0,0,0,6.7,25.006,50.062,50.062,0,0,0,18.309,18.3l696.5,401.9a50.067,50.067,0,0,0,24.989,6.693,50.067,50.067,0,0,0,24.99-6.693l696.5-401.9a50.071,50.071,0,0,0,18.31-18.3,50.068,50.068,0,0,0,6.7-25.006v-803.748a50.062,50.062,0,0,0-6.7-25,50.07,50.07,0,0,0-18.31-18.3l-696.5-401.9A50.065,50.065,0,0,0-5501.5-4471.273Z" transform="translate(7326.5 5174.5)" fill="#f5d850"/>
    </g>
    <g id="Mask_Group_78" data-name="Mask Group 78" clip-path="url(#clip-path)">
      <g id="Group_309" data-name="Group 309">
        <path id="Subtraction_303-2" data-name="Subtraction 303" d="M-5763.5-3164.735h-.043v-209.274c1.148-5.421,3.991-9.628,9.506-14.066,5.3-4.266,12.811-8.564,23.2-14.514l.013-.009c2.161-1.236,4.5-2.573,6.931-3.978L-5325-3636.818a50.065,50.065,0,0,0,18.305-18.3,50.072,50.072,0,0,0,6.7-25V-4156.88a50.071,50.071,0,0,0-6.7-25,50.069,50.069,0,0,0-18.305-18.3l-242.062-139.722v-201.609a19.948,19.948,0,0,1,2.691-6.6,14.653,14.653,0,0,1,4.465-4.535,13.838,13.838,0,0,1,7.521-2.062,25.919,25.919,0,0,1,9.678,2.175L-5129-4313.684a50.066,50.066,0,0,1,18.3,18.3,50.06,50.06,0,0,1,6.7,25v703.762a50.06,50.06,0,0,1-6.7,25,50.06,50.06,0,0,1-18.3,18.3l-609.5,351.883A50.063,50.063,0,0,1-5763.5-3164.735Zm-196.043-105.446v0L-6398-3523.317a50.058,50.058,0,0,1-18.3-18.3,50.062,50.062,0,0,1-6.7-25v-703.762a50.062,50.062,0,0,1,6.7-25,50.062,50.062,0,0,1,18.3-18.3l609.5-351.884a50.068,50.068,0,0,1,25-6.7l.432,0v197.148c-.674,9.745-2.295,16.588-5.1,21.537-3.5,6.166-8.5,8.851-14.825,12.251l-.006,0-.016.009c-1.591.854-3.235,1.737-4.978,2.743l-23.723,13.693L-6201-4200.184a50.084,50.084,0,0,0-18.3,18.3,50.052,50.052,0,0,0-6.7,25v476.758a50.055,50.055,0,0,0,6.7,25,50.061,50.061,0,0,0,18.3,18.3l241.453,139.37v227.266h0Z" transform="translate(7588.066 5476.25)" fill="#d9ae3b"/>
        <rect id="Rectangle_1074-2" data-name="Rectangle 1074" width="196" height="313" transform="translate(1825 2131)" fill="#d9ae3b"/>
        <rect id="Rectangle_1075-2" data-name="Rectangle 1075" width="196" height="330" transform="translate(1629 671)" fill="#d9ae3b"/>
        <path id="Subtraction_304-2" data-name="Subtraction 304" d="M-5501.5-2560.727a50.058,50.058,0,0,1-24.99-6.694l-871.5-502.9a50.071,50.071,0,0,1-18.308-18.3,50.066,50.066,0,0,1-6.7-25.005V-4119.375a50.068,50.068,0,0,1,6.7-25,50.062,50.062,0,0,1,18.308-18.3l871.5-502.9a50.07,50.07,0,0,1,24.99-6.693,50.07,50.07,0,0,1,24.99,6.693l871.5,502.9a50.056,50.056,0,0,1,18.309,18.3,50.07,50.07,0,0,1,6.7,25v1005.747a50.071,50.071,0,0,1-6.7,25.005,50.065,50.065,0,0,1-18.309,18.3l-871.5,502.9A50.061,50.061,0,0,1-5501.5-2560.727Zm0-1910.547a50.061,50.061,0,0,0-24.989,6.693l-696.5,401.9a50.067,50.067,0,0,0-18.309,18.3,50.057,50.057,0,0,0-6.7,25v803.748a50.064,50.064,0,0,0,6.7,25.006,50.062,50.062,0,0,0,18.309,18.3l696.5,401.9a50.067,50.067,0,0,0,24.989,6.693,50.067,50.067,0,0,0,24.99-6.693l696.5-401.9a50.071,50.071,0,0,0,18.31-18.3,50.068,50.068,0,0,0,6.7-25.006v-803.748a50.062,50.062,0,0,0-6.7-25,50.07,50.07,0,0,0-18.31-18.3l-696.5-401.9A50.065,50.065,0,0,0-5501.5-4471.273Z" transform="translate(7326.5 5174.5)" fill="#d9ae3b"/>
      </g>
    </g>
    <g id="Mask_Group_79" data-name="Mask Group 79" clip-path="url(#clip-path-2)">
      <g id="Group_310" data-name="Group 310">
        <path id="Subtraction_303-3" data-name="Subtraction 303" d="M-5763.5-3164.735h-.043v-209.274c1.148-5.421,3.991-9.628,9.506-14.066,5.3-4.266,12.811-8.564,23.2-14.514l.013-.009c2.161-1.236,4.5-2.573,6.931-3.978L-5325-3636.818a50.065,50.065,0,0,0,18.305-18.3,50.072,50.072,0,0,0,6.7-25V-4156.88a50.071,50.071,0,0,0-6.7-25,50.069,50.069,0,0,0-18.305-18.3l-242.062-139.722v-201.609a19.948,19.948,0,0,1,2.691-6.6,14.653,14.653,0,0,1,4.465-4.535,13.838,13.838,0,0,1,7.521-2.062,25.919,25.919,0,0,1,9.678,2.175L-5129-4313.684a50.066,50.066,0,0,1,18.3,18.3,50.06,50.06,0,0,1,6.7,25v703.762a50.06,50.06,0,0,1-6.7,25,50.06,50.06,0,0,1-18.3,18.3l-609.5,351.883A50.063,50.063,0,0,1-5763.5-3164.735Zm-196.043-105.446v0L-6398-3523.317a50.058,50.058,0,0,1-18.3-18.3,50.062,50.062,0,0,1-6.7-25v-703.762a50.062,50.062,0,0,1,6.7-25,50.062,50.062,0,0,1,18.3-18.3l609.5-351.884a50.068,50.068,0,0,1,25-6.7l.432,0v197.148c-.674,9.745-2.295,16.588-5.1,21.537-3.5,6.166-8.5,8.851-14.825,12.251l-.006,0-.016.009c-1.591.854-3.235,1.737-4.978,2.743l-23.723,13.693L-6201-4200.184a50.084,50.084,0,0,0-18.3,18.3,50.052,50.052,0,0,0-6.7,25v476.758a50.055,50.055,0,0,0,6.7,25,50.061,50.061,0,0,0,18.3,18.3l241.453,139.37v227.266h0Z" transform="translate(7588.066 5476.25)" fill="#f4e499"/>
        <rect id="Rectangle_1074-3" data-name="Rectangle 1074" width="196" height="313" transform="translate(1825 2131)" fill="#f4e499"/>
        <rect id="Rectangle_1075-3" data-name="Rectangle 1075" width="196" height="330" transform="translate(1629 671)" fill="#f4e499"/>
        <path id="Subtraction_304-3" data-name="Subtraction 304" d="M-5501.5-2560.727a50.058,50.058,0,0,1-24.99-6.694l-871.5-502.9a50.071,50.071,0,0,1-18.308-18.3,50.066,50.066,0,0,1-6.7-25.005V-4119.375a50.068,50.068,0,0,1,6.7-25,50.062,50.062,0,0,1,18.308-18.3l871.5-502.9a50.07,50.07,0,0,1,24.99-6.693,50.07,50.07,0,0,1,24.99,6.693l871.5,502.9a50.056,50.056,0,0,1,18.309,18.3,50.07,50.07,0,0,1,6.7,25v1005.747a50.071,50.071,0,0,1-6.7,25.005,50.065,50.065,0,0,1-18.309,18.3l-871.5,502.9A50.061,50.061,0,0,1-5501.5-2560.727Zm0-1910.547a50.061,50.061,0,0,0-24.989,6.693l-696.5,401.9a50.067,50.067,0,0,0-18.309,18.3,50.057,50.057,0,0,0-6.7,25v803.748a50.064,50.064,0,0,0,6.7,25.006,50.062,50.062,0,0,0,18.309,18.3l696.5,401.9a50.067,50.067,0,0,0,24.989,6.693,50.067,50.067,0,0,0,24.99-6.693l696.5-401.9a50.071,50.071,0,0,0,18.31-18.3,50.068,50.068,0,0,0,6.7-25.006v-803.748a50.062,50.062,0,0,0-6.7-25,50.07,50.07,0,0,0-18.31-18.3l-696.5-401.9A50.065,50.065,0,0,0-5501.5-4471.273Z" transform="translate(7326.5 5174.5)" fill="#f4e499"/>
      </g>
    </g>
  </g>
</svg>
