<svg xmlns="http://www.w3.org/2000/svg" width="16.997" height="20.784" viewBox="0 0 16.997 20.784">
  <g id="Group_333" data-name="Group 333" transform="translate(-3.546 -2.028)">
    <path id="Path_1104" data-name="Path 1104" d="M11.665,18.632,5.733,21.881a.989.989,0,0,1-1.318-.394h0a1.043,1.043,0,0,1-.119-.467V6.622c0-2.746,1.876-3.844,4.577-3.844h6.343c2.618,0,4.577,1.025,4.577,3.661V21.021a.979.979,0,0,1-.979.979,1.079,1.079,0,0,1-.476-.119L12.37,18.632A.741.741,0,0,0,11.665,18.632Z" fill="none" stroke="#3e3e3e" stroke-linecap="round" stroke-linejoin="round" stroke-width="1.5" fill-rule="evenodd"/>
    <path id="Path_1105" data-name="Path 1105" d="M8.37,9.323h7.3" fill="none" stroke="#3e3e3e" stroke-linecap="round" stroke-linejoin="round" stroke-width="1.5"/>
  </g>
</svg>
