<svg xmlns="http://www.w3.org/2000/svg" width="13.5" height="13.5" viewBox="0 0 13.5 13.5">
  <g id="Group_454" data-name="Group 454" transform="translate(-2680.25 120.75)">
    <path id="Path_1331" data-name="Path 1331" d="M15.306,2h1.96a1.476,1.476,0,0,1,1.469,1.482V5.458a1.476,1.476,0,0,1-1.469,1.482h-1.96a1.476,1.476,0,0,1-1.469-1.482V3.482A1.476,1.476,0,0,1,15.306,2Z" transform="translate(2674.265 -122)" fill="none" stroke="#3b3b3b" stroke-linecap="round" stroke-linejoin="round" stroke-width="1.5" fill-rule="evenodd"/>
    <path id="Path_1332" data-name="Path 1332" d="M3.469,2H5.429A1.476,1.476,0,0,1,6.9,3.482V5.458A1.476,1.476,0,0,1,5.429,6.941H3.469A1.476,1.476,0,0,1,2,5.458V3.482A1.476,1.476,0,0,1,3.469,2Z" transform="translate(2679 -122)" fill="none" stroke="#3b3b3b" stroke-linecap="round" stroke-linejoin="round" stroke-width="1.5" fill-rule="evenodd"/>
    <path id="Path_1333" data-name="Path 1333" d="M3.469,13.766H5.429A1.476,1.476,0,0,1,6.9,15.248v1.976a1.476,1.476,0,0,1-1.469,1.482H3.469A1.476,1.476,0,0,1,2,17.224V15.248A1.476,1.476,0,0,1,3.469,13.766Z" transform="translate(2679 -126.706)" fill="none" stroke="#3b3b3b" stroke-linecap="round" stroke-linejoin="round" stroke-width="1.5" fill-rule="evenodd"/>
    <path id="Path_1334" data-name="Path 1334" d="M15.306,13.766h1.96a1.476,1.476,0,0,1,1.469,1.483v1.976a1.476,1.476,0,0,1-1.469,1.482h-1.96a1.476,1.476,0,0,1-1.469-1.482V15.248A1.476,1.476,0,0,1,15.306,13.766Z" transform="translate(2674.265 -126.706)" fill="none" stroke="#3b3b3b" stroke-linecap="round" stroke-linejoin="round" stroke-width="1.5" fill-rule="evenodd"/>
  </g>
</svg>
