<svg xmlns="http://www.w3.org/2000/svg" width="12.16" height="14.773" viewBox="0 0 12.16 14.773">
  <g id="Group_451" data-name="Group 451" transform="translate(-3.546 -2.028)">
    <path id="Path_1104" data-name="Path 1104" d="M9.365,13.683l-4.08,2.235a.68.68,0,0,1-.907-.271h0a.718.718,0,0,1-.082-.321v-9.9c0-1.889,1.291-2.644,3.148-2.644h4.363c1.8,0,3.148.705,3.148,2.519v10.03a.674.674,0,0,1-.674.674.742.742,0,0,1-.327-.082L9.85,13.683A.51.51,0,0,0,9.365,13.683Z" fill="none" stroke="#3e3e3e" stroke-linecap="round" stroke-linejoin="round" stroke-width="1.5" fill-rule="evenodd"/>
    <path id="Path_1105" data-name="Path 1105" d="M8.37,9.323h5.018" transform="translate(-1.271 -2.043)" fill="none" stroke="#3e3e3e" stroke-linecap="round" stroke-linejoin="round" stroke-width="1.5"/>
  </g>
</svg>
