<svg width="63" height="63" viewBox="0 0 63 63" fill="none" xmlns="http://www.w3.org/2000/svg">
<rect width="63" height="63" rx="14" fill="#F7B200"/>
<path fill-rule="evenodd" clip-rule="evenodd" d="M34.2504 15.0974C32.3173 13.9676 29.923 13.9587 27.9802 15.0719L18.2075 20.6631C16.262 21.7711 15.058 23.838 15.0494 26.0781L15.0017 37.3309C14.9933 39.5714 16.1805 41.6479 18.1136 42.7734L27.8374 48.4435C29.7706 49.5733 32.1649 49.5822 34.1076 48.469L43.8778 42.8792C45.8266 41.765 47.0298 39.7013 47.0384 37.4628L47.0861 26.2099C47.0945 23.9695 45.9073 21.8929 43.9742 20.7674L34.2504 15.0974ZM35.7195 12.581C32.885 10.925 29.3784 10.9128 26.5324 12.5432L16.7655 18.1311L16.7641 18.1318C13.9106 19.7576 12.1484 22.7867 12.1356 26.0663L12.0879 37.3197C12.0753 40.5995 13.8126 43.6411 16.6475 45.2916L26.3671 50.9592C29.2018 52.6159 32.709 52.6283 35.5555 50.9977M35.5555 50.9977L45.3245 45.4086C48.1752 43.7785 49.9395 40.7561 49.9523 37.4745L49.9999 26.2217C50.0125 22.9422 48.2756 19.9004 45.4412 18.2498L35.7207 12.5817L35.7195 12.581" fill="white"/>
<path fill-rule="evenodd" clip-rule="evenodd" d="M31.0082 17.4492C30.7568 17.4618 30.5392 17.492 30.3833 17.5191C30.3045 17.5328 30.2392 17.5461 30.1906 17.5567C30.1662 17.562 30.1459 17.5667 30.13 17.5705L30.114 17.5744L31.0082 17.4492Z" fill="white"/>
<path fill-rule="evenodd" clip-rule="evenodd" d="M31.0082 17.4492C31.4651 17.4264 32.2391 17.4492 32.9373 17.854L32.954 17.8637L42.171 23.5733L42.1723 23.5741C42.5294 23.7948 43.0104 24.2763 42.979 25.0242C42.9479 25.7639 42.4378 26.2025 42.0751 26.3949L42.0686 26.3984L38.2619 28.4099L32.2771 31.2219C31.2455 31.6138 30.4422 31.4977 29.4679 31.0094L23.2173 27.135L23.215 27.1335C22.8663 26.9184 22.2217 26.696 21.5634 27.057C20.9069 27.4171 20.747 28.0778 20.7396 28.4857L20.7395 28.4926L20.6758 36.8489V36.854C20.6758 37.2893 20.821 37.6804 20.9927 37.9733C21.1626 38.2633 21.4341 38.5859 21.8233 38.7988L29.4827 43.0441C29.8505 43.2496 30.2482 43.3176 30.5708 43.3226C30.8955 43.3277 31.2918 43.2715 31.6617 43.0827L39.7093 38.9344L39.7122 38.9329C39.8822 38.8458 40.1257 38.6531 40.3645 38.464C40.6742 38.2188 40.9762 37.9797 41.1007 37.9845C41.1714 37.9873 41.2246 37.989 41.2655 37.9904C41.3641 37.9936 41.391 37.9945 41.4163 38.0011C41.4257 38.0035 41.435 38.0068 41.4476 38.0112C41.4666 38.0179 41.4932 38.0273 41.5396 38.0407C41.7029 38.0879 42.2039 38.2701 42.4276 38.8519C42.6506 39.4317 42.4029 39.9014 42.3151 40.0444C42.2093 40.2168 42.0875 40.3296 42.0301 40.3799C41.9036 40.491 41.7697 40.5731 41.6797 40.6249L41.6775 40.6261L32.7073 45.7572L32.7049 45.7586C31.6378 46.3734 30.3264 46.3615 29.2693 45.7436L29.2675 45.7426L19.7549 40.2024L19.7524 40.2009C18.6935 39.581 18.048 38.4511 18.048 37.2248L18.048 37.2197L18.0904 26.201C18.099 24.9804 18.7523 23.8526 19.8123 23.2408L19.8168 23.2382L28.7957 18.1021L28.7999 18.0998C29.1406 17.9081 29.6852 17.6786 30.1081 17.5759L30.1094 17.5755L30.114 17.5744L31.0082 17.4492ZM32.207 20.0815L38.7034 24.0429L37.1494 24.8728L30.7577 20.9965L32.207 20.0815Z" fill="white"/>
<path d="M26.1906 36.4219C26.681 37.0109 27.4099 37.9596 27.4099 37.9596L28.0203 33.863L23.836 31.5566L23.3218 35.9485C23.3218 35.9485 23.493 35.8501 23.6036 35.7886C23.661 35.7567 23.6893 35.7411 23.7509 35.7076C23.8743 35.6406 24.0413 35.5518 24.217 35.4643C24.3931 35.3766 24.5755 35.2913 24.7302 35.2306C24.8076 35.2002 24.8756 35.1769 24.9309 35.1624C24.9795 35.1497 25.0087 35.1465 25.0226 35.1464C25.0263 35.1484 25.0333 35.1524 25.0441 35.1598C25.0676 35.1761 25.0989 35.2014 25.1378 35.2366C25.2151 35.3067 25.3132 35.4071 25.4257 35.5295C25.6502 35.7739 25.8969 36.0692 26.1906 36.4219Z" fill="white"/>
</svg>
