<svg width="24" height="24" viewBox="0 0 24 24" fill="none" xmlns="http://www.w3.org/2000/svg">
<path fill-rule="evenodd" clip-rule="evenodd" d="M12 22C17.5228 22 22 17.5228 22 12C22 6.47715 17.5228 2 12 2C6.47715 2 2 6.47715 2 12C2 17.5228 6.47715 22 12 22ZM11.4301 14.99L16.1801 10.24C16.5201 9.9 16.5201 9.35 16.1801 9C15.8401 8.66 15.2801 8.66 14.9401 9L10.8101 13.13L9.06012 11.38C8.72012 11.04 8.16012 11.04 7.82012 11.38C7.48012 11.72 7.48012 12.27 7.82012 12.62L10.2001 14.99C10.3701 15.16 10.5901 15.24 10.8101 15.24C11.0401 15.24 11.2601 15.16 11.4301 14.99Z" fill="currentColor"/>
</svg>
